<?xml version="1.0" encoding="utf-8"?>
<!-- Generator: Adobe Illustrator 22.0.0, SVG Export Plug-In . SVG Version: 6.00 Build 0)  -->
<svg version="1.1" xmlns="http://www.w3.org/2000/svg" xmlns:xlink="http://www.w3.org/1999/xlink" x="0px" y="0px"
	 viewBox="0 0 116.4 134.4" style="enable-background:new 0 0 116.4 134.4;" xml:space="preserve">
<style type="text/css">
	.st0{fill:#FFFFFF;stroke:#000000;stroke-width:2;}
	.st1{fill:#FFFFFF;stroke:#000000;stroke-width:0.75;}
	.st2{clip-path:url(#SVGID_2_);fill:#FFFFFF;}
	.st3{clip-path:url(#SVGID_2_);fill:#575756;}
	.st4{clip-path:url(#SVGID_2_);fill:#868686;}
	.st5{font-family:'Courier-Oblique';}
	.st6{font-size:8px;}
	.st7{font-family:'Courier';}
</style>
<g id="Layer_1">
	<g>
		<path class="st0" d="M58.2,1.2L1,34.2v66l57.2,33l57.2-33v-66L58.2,1.2z"/>
		<path class="st1" d="M58.2,4.5L3.9,35.8v62.7l54.3,31.4l54.3-31.4V35.8L58.2,4.5z"/>
	</g>
</g>
<g id="Layer_2">
	<g>
		<defs>
			<rect id="SVGID_1_" x="9" y="38.3" width="98.7" height="59.7"/>
		</defs>
		<clipPath id="SVGID_2_">
			<use xlink:href="#SVGID_1_"  style="overflow:visible;"/>
		</clipPath>
		<path class="st2" d="M82.1,58.4c0,0,1.4,0.2,1.7,1.1c0.3,0.8-1.3,1.1-1.3,1.1l-1.8,0.6l1.2-2.8"/>
		<path class="st2" d="M55,56.7l1.6,1.2c0,0,1.3,0.1,1.5-0.6c0.1-0.7,0.8-2.9,0.8-2.9l-5.2,0.1l-0.3,1.1L55,56.7z"/>
		<path class="st2" d="M59.4,54.4l6.2-0.6c0,0-0.5,2.4-0.7,3.3c-0.2,0.8-1.1,1.2-1.5,1.3c-0.4,0-4.9-0.8-4.9-0.8L59.4,54.4z"/>
		<path class="st2" d="M66.2,53.6l4.3-0.6l1.2,0.6c0,0-0.3,1.7-0.2,2.6c0,0.9-1.4,2.8-2.2,2.9c-0.9,0.1-3.5-1.2-3.6-1.4L66.2,53.6z"
			/>
		<path class="st2" d="M72,54.2c0,0,4.7,2.5,5.4,2.7c0.7,0.2-0.6,2.4-0.6,2.5c0,0.2-1.4,1.5-2.8,1.5c-1.4,0-2.9-1.9-2.9-1.9
			C72.4,58.5,72,54.2,72,54.2"/>
		<path class="st2" d="M78.7,57.1c0.2-0.2,3.4-0.6,3.1,0.5c-0.3,1.1-1.8,3.6-1.8,3.6s-3.4-0.2-3.9-0.4C75.6,60.7,77.8,58,78.7,57.1"
			/>
		<path class="st2" d="M56.7,54.5c0,0,0.6,1.5,0.4,1.6c-0.2,0.1-1.7,0-1.7,0l0.3-1.6"/>
		<path class="st2" d="M46.8,54.6l6.1-0.1c0,0,0.1,1-0.4,1c-0.4,0-2.4,1.5-2.7,1.6c-0.3,0.1-2.2,2.1-2.1,2.1
			C49.4,56.5,46.8,54.6,46.8,54.6"/>
		<path class="st2" d="M43.7,54.6l2.7-0.1c0,0,1.3,2,1.5,2.4c0.2,0.5,0.1,1.6-0.6,2c-0.7,0.4-2.3-1.4-2.3-1.4"/>
		<polyline class="st2" points="40.3,59.4 40.3,60.7 38.8,60.2 39.5,58.3 		"/>
		<path class="st2" d="M41.5,55.4l1.1,4.8c0,0-0.9,0-1.8-0.7c-0.9-0.7-0.1-3.8-0.1-3.8L41.5,55.4z"/>
		<path class="st2" d="M63,72.5c0,0,1-0.2,1-0.4c0-0.4,16.9,17.8,17.4,18c0.5,0.2,10.9,6.8,11.2,7.1c0.4,0.2-0.7,0.9-0.7,0.9l-2.7-2
			c0,0-8.2-5-8.6-5.1c-0.4-0.1-5.4-5.2-6.9-6.7c-1.5-1.5-9.9-11.5-9.9-11.5"/>
		<path class="st2" d="M71.8,60.4l9.7,7.2c0,0,9,1.6,9.6,1.8c0.6,0.2,16.4,0,16.4,0s0.4,0.8,0.2,0.8c-0.3,0-7.1,0.1-7.1,0.1
			l-9.3,0.2c0,0-6.9-1.3-9.8-2C78.4,67.9,70,61,70,61L71.8,60.4z"/>
		<path class="st2" d="M43.9,38.8c0.1-0.6,1-0.5,1.1-0.5c0.1,0,1.2,0.7,0.6,1c-0.6,0.3,0,8.9,0,8.9h-2
			C43.5,48.2,43.9,39.5,43.9,38.8"/>
		<path class="st2" d="M52.2,47.9c0,0,4.9-7.7,5.5-7.7c0.6,0,4.6,7.7,4.6,7.7h-1.2c0,0-3.1-5.8-3.4-6.1c-0.3-0.3-3.5,6.1-3.5,6.1"/>
		<path class="st2" d="M37.3,49.4l-1.7-3.3c0,0-1.3-2.5-1.1-3.2c0.2-0.7,1.2,0.2,1.6,0.4c0.4,0.2,2.7,5.4,2.7,5.4"/>
		<path class="st2" d="M36.6,63.2c0,0,0.3,2.5,0,2.6c-0.3,0.1-1.3,1.1-1.3,1.3c0,0.2-0.5,0.2-1.1,0.2c-0.6-0.1-2.4-0.5-2.6-2.2
			c-0.1-0.8,0.3-3.4,0.6-3.5"/>
		<path class="st2" d="M40.6,48.7c0.1,1.7,1.5,3.8,0.7,4.1c-0.8,0.3-4.1,1.7-4,3c0,0.4,2.5-0.2,2.5,0.4c0,0.5-0.1,1.8-0.1,2.2
			c0,0.4-2.4,1.2-2.4,1.2l-5.6-1.6c0,0,0.1-5.6,2.6-7C36.8,49.6,40.6,48.7,40.6,48.7"/>
		<path class="st2" d="M48,56.9l-0.6,1.4c0,0,3.5-0.1,4-0.2c1-0.2,3.7,0.2,3.8,0.3c0.1,0.1,2-1.1,2-1.1C55.1,56.3,48,56.9,48,56.9"
			/>
		<path class="st2" d="M57,58.2l4.9,0.9c0,0,1.6,0.1,3,0.5c1.3,0.4,5.9,1.2,5.9,1.2s1,0.1,2.9,0.7c1.8,0.6,2.1,0.8,2.1,0.8
			s2.1,0.1,3.4,0.3c3.2,0.6,2,0.3,1.8-0.8c-0.2-1.2-1.9-0.2-4.8-1c-3.8-1-3.6-1.1-18.5-4.1L57,58.2z"/>
		<path class="st2" d="M36,93.1l1-2.4l-0.5,0l-0.8,2.7 M39.3,85.8l1.4-2.5L40.2,83l-1.5,2.5"/>
		<polyline class="st2" points="44.7,70.7 44.2,66.4 43.8,67.1 44,71 		"/>
		<polyline class="st2" points="20,80.1 22.9,78 22.2,77.9 19.4,79.8 		"/>
		<polyline class="st2" points="29,73.5 29.6,69.4 29,69.9 28.2,73.7 		"/>
		<polyline class="st2" points="42.8,77.7 43.5,75.5 43.1,75.2 41.9,77.9 		"/>
		<path class="st3" d="M82.1,58.4c0,0,1.4,0.2,1.7,1.1c0.3,0.8-1.3,1.1-1.3,1.1l-1.8,0.6l1.2-2.8"/>
		<path class="st3" d="M55,56.7l1.6,1.2c0,0,1.3,0.1,1.5-0.6c0.1-0.7,0.8-2.9,0.8-2.9l-5.2,0.1l-0.3,1.1L55,56.7z"/>
		<path class="st3" d="M48.7,62.9c0-0.2,2.5-5,3.3-5.5c0.9-0.5,1.6-0.9,1.8-0.5c0.2,0.3,7.8,14.6,8.4,15.3c0.6,0.6,1.8,0.1,1.4-0.8
			c-0.4-0.9-7.9-12.9-7.9-12.9s-1.3-2.4-3.1-2.6C51,55.5,48,60.1,48,60.1"/>
		<path class="st3" d="M45.4,64.1c0,0,0.7,0.3,0.8,0c0.2-0.3,0-1.2,0-1.2l-2.7-7.4l0.2,4.4L45.4,64.1z"/>
		<path class="st3" d="M42.2,54.8c0,0,0.7-0.4,0.9,0c0.2,0.4,0.2,1.3,0.2,1.3l0.5,5c0,0,0.9,8.4,1.1,9.2c0.2,0.7-0.1,0.8-0.3,0.8
			c-0.2,0-1,0.2-0.9-0.3c0.1-0.5-0.7-8.9-0.7-8.9s-1.2-6.2-1.2-6.7"/>
		<path class="st3" d="M43.9,71.6c0,0,0.7-0.6,0.7,0c0,0.6-3.6,11.7-3.6,11.7l-6,12.1c0,0-0.8,0-0.6-0.2c0.2-0.2,5.1-11.4,5.1-11.4
			S43.3,75,43.9,71.6"/>
		<path class="st3" d="M45.5,59c0.1-0.2,1.9,0.4,2,1.1c0.1,0.7,1.1,3.2,1,3.1c-0.1,0-1.8,0-2.2-1C45.9,61.2,45.5,59,45.5,59"/>
		<path class="st4" d="M38.9,54.9c0,0,4-1,9.6-0.6c5.6,0.3,24.5-1.1,25.3-3.7c0.7-2.6-18.5-3.9-28.6,0.9
			C35.1,56.3,38.9,54.9,38.9,54.9"/>
		<path class="st4" d="M41.1,49c0,0,0.9,3.4,1.5,3.2c0.7-0.1,7.6-4,15.5-4c0.2,0-17,0.4-17,0.4V49z"/>
		<path class="st3" d="M39.6,59c0,0,0.3,0.3,1,1c0.8,0.7,2.2,0.5,2.2,0.5l0.1,2.6l-5.5-3"/>
		<path class="st3" d="M43,63.8c0,0,0.2,1.3,0,1.3c-0.2,0-11-5.5-11.3-5.6c-0.3,0-0.6,0.3-0.6,0.3s-1.6-1-1.1-1.3
			c0.5-0.2,3.1,0,3.4,0.2C33.7,59,43,63.8,43,63.8"/>
		<path class="st3" d="M31.1,60.2l-1.8,13.5c0,0-1.2,0.1-1.2-0.3S29.9,59,29.9,59"/>
		<path class="st3" d="M28.6,74c0,0-8.5,6.2-8.8,6.3c-0.3,0.2-0.8-0.7-0.8-0.7l8.6-5.9"/>
		<polyline class="st3" points="19,80.9 9.7,88.8 9,88.1 18.7,79.8 		"/>
		<path class="st3" d="M35.9,67.1c0,0,3.9-0.1,4,0.3c0.2,0.4-0.8,0.5-2.2,0.9c-1.4,0.4-7.6,5.4-7.5,6.8c0.1,1.4,1.4,0,1.4,0
			s4.1-5.8,6.2-6c2.1-0.2,3-0.3,3.1-1.3c0.1-1,0.3-2.2-2.5-2c-2.7,0.1-2.9,1-2.9,1"/>
		<path class="st3" d="M29.3,61.1c-0.1,0.1-5.6-0.2-7.7-0.9c-2.2-0.7-5.4-2.4-5.4-2.4s-2.2-2.6-2.6-2.6c-0.4,0.1,0.4,2,2,3.2
			c1.6,1.2,8.2,3.3,8.2,3.3l5.5,0.3"/>
		<polyline class="st3" points="46,40.1 47.5,48.2 46.3,48.2 45.5,43.3 45.7,39.6 		"/>
		<polyline class="st3" points="35.5,46.5 35.7,49.7 34.5,50.6 34.5,44.1 		"/>
		<polyline class="st3" points="36.5,62.9 37.1,62.6 32.8,60.4 32.7,61.1 		"/>
		<path class="st3" d="M34.3,68c0,0,0-0.2-1.4,0c-1.4,0.2-2.7,0.3-2.6,0.2c0.1-0.1-0.3-0.5,0.3-0.5c0.6,0,1.7-0.4,1.7-0.4l-0.6-0.3
			c0,0-1.5,0.6-1.4,0.4c0.1-0.2,1.4-1.1,1.4-1.1s0.9,1.5,2.8,1.5"/>
		<path class="st3" d="M31.7,62.7c-0.2-0.2-0.6-0.6-0.6-0.6l-0.2,0.8l0.8,0.6"/>
		<polyline class="st3" points="30.7,64.5 31.5,64.5 31.5,65.1 30.7,65.1 		"/>
		<path class="st3" d="M29.3,60.8c0,0-5.7-4-6.4-7.4C22.2,50,22,48.7,22,48.7s0.1,3.6,1,5.7c1.3,3.1,6,6.5,6,6.5"/>
		<path class="st3" d="M29,64.5c0,0-3.8-0.1-4.4-0.3c-0.6-0.2-3-0.4-3.5-0.8c-0.5-0.4-1-0.7-1-0.7s-0.3,0.1,0.5,0.7
			c0.8,0.5,4.6,1.3,5.6,1.4c1,0.1,2.8,0,2.8,0"/>
		<path class="st3" d="M28.7,60.1c0-0.2-0.4-2.9-0.4-3.1c0-0.3,0.2,2.9,0.2,2.9"/>
		<path class="st3" d="M27.6,59.2c0-0.1-0.2-2.8-0.1-3c0.1-0.3,0,2.9,0,2.9"/>
		<path class="st3" d="M26.9,58.3c0-0.1-0.1-2.5,0-2.7c0.1-0.2-0.2,2.7-0.2,2.7"/>
		<path class="st3" d="M29.4,60.5c0-0.1-0.3-2.6-0.4-2.9c-0.1-0.4,0.2,2.9,0.2,2.9"/>
		<path class="st3" d="M26.1,57.5c0,0,0.2-1.7,0.3-2c0.1-0.3-0.5,2-0.5,2"/>
		<path class="st3" d="M25.5,56.7c0-0.2,0.1-1.3,0.2-1.7c0-0.3-0.4,1.7-0.4,1.7"/>
		<path class="st3" d="M24.6,56c0.1-0.1-0.3-1.7-0.1-2.2c0.2-0.5-0.1,1.9-0.1,1.9"/>
		<path class="st3" d="M26.6,64.2c0-0.1-2.4-2.1-2.3-2.2c0.1,0,2.6,2.2,2.6,2.2"/>
		<path class="st3" d="M27.6,64.2c0,0-1.9-2.1-1.8-2.1c0.1,0,1.9,1.8,2.1,2.1"/>
		<path class="st3" d="M28.1,64.2L28,62.1c0,0,0.4,1.9,0.3,2.1"/>
		<path class="st3" d="M25.7,64.1c0,0-1.9-2.1-1.8-2c0.2,0.1,1.6,2,1.6,2"/>
		<path class="st3" d="M26.6,65.2c-0.1,0-1.6,1.4-1.6,1.4l1.6-1.7"/>
		<path class="st3" d="M25.7,65.1c-0.1,0-1.6,1.1-1.6,1.1l1.6-1.3"/>
		<polyline class="st3" points="23.5,64.5 23.4,64.5 21.9,65.6 		"/>
		<path class="st3" d="M22.8,64.3c0,0,0.1,1.9,0,1.8c-0.1,0-0.3-1.8-0.3-1.8"/>
		<path class="st3" d="M22,64.1c0,0-0.8,1.6-0.8,1.4c0-0.2,0.5-1.4,0.5-1.4"/>
		<polyline class="st3" points="21.1,63.9 20.7,65.1 21.3,64.1 		"/>
		<polyline class="st3" points="25,64 23.1,61.8 24.6,64 		"/>
		<path class="st3" d="M23.8,63.9c0-0.1-1.3-1.8-1.6-1.8c-0.3,0,1.5,1.8,1.5,1.8"/>
		<path class="st3" d="M22,63.5c0,0-0.2-1.2-0.6-1.7C21,61.3,21.9,63.4,22,63.5"/>
		<polyline class="st3" points="24.1,64.7 23.3,66.9 23.8,64.7 		"/>
		<path class="st3" d="M59.4,54.4l6.2-0.6c0,0-0.5,2.4-0.7,3.3c-0.2,0.8-1.1,1.2-1.5,1.3c-0.4,0-4.9-0.8-4.9-0.8L59.4,54.4z
			 M60.9,56l2,1c0,0,0.2-1.7,0-2.3c-0.2-0.5-2,0-2,0"/>
		<path class="st3" d="M66.2,53.6l4.3-0.6l1.2,0.6c0,0-0.3,1.7-0.2,2.6c0,0.9-1.4,2.8-2.2,2.9c-0.9,0.1-3.5-1.2-3.6-1.4L66.2,53.6z
			 M67.2,57c0.2,0.3,2.1,1.6,2.1,1.6s0.2-1.9,0-2.3c-0.2-0.4-2.1,0-2.1,0"/>
		<path class="st3" d="M72,54.2c0,0,4.7,2.5,5.4,2.7c0.7,0.2-0.6,2.4-0.6,2.5c0,0.2-1.4,1.5-2.8,1.5c-1.4,0-2.9-1.9-2.9-1.9
			C72.4,58.6,72,54.2,72,54.2 M72.1,57l1.9,0.3c0,0,0.7-0.9,0.5-1.8c-0.2-0.9-2.3-1.1-2.3-1.1 M72.4,59c0.3,0.3,2.3,1,2.7,1.2
			c0.5,0.2,0-1.2,0-1.2s-1.6-0.2-2.3-0.4"/>
		<path class="st3" d="M78.7,57.2c0.2-0.2,3.4-0.6,3.1,0.5c-0.3,1.1-1.8,3.6-1.8,3.6s-3.4-0.2-3.9-0.4
			C75.6,60.7,77.8,58.1,78.7,57.2 M78.2,59.9c0,0,1.4,0.5,1.7,0.5c0.3,0,0.2-0.8,0.2-0.8l-1-1.1"/>
		<path class="st2" d="M56.7,54.5c0,0,0.6,1.5,0.4,1.6c-0.2,0.1-1.7,0-1.7,0l0.3-1.6"/>
		<path class="st3" d="M46.8,54.6l6.1-0.1c0,0,0.1,1-0.4,1c-0.4,0-2.4,1.5-2.7,1.6c-0.3,0.1-2.2,2.1-2.1,2.1
			C49.4,56.5,46.8,54.6,46.8,54.6 M48.7,56.7l2.1-0.7l-0.1-1.1l-2.5-0.1l0.1,1.1"/>
		<path class="st3" d="M43.7,54.6l2.7-0.1c0,0,1.3,2,1.5,2.4c0.2,0.5,0.1,1.6-0.6,2c-0.7,0.4-2.3-1.4-2.3-1.4 M45.9,55l-1.4,0.2v1.2
			l2.1-0.3l-0.4-1.3"/>
		<polyline class="st2" points="40.2,59.4 40.2,60.7 38.8,60.2 39.5,58.3 		"/>
		<path class="st3" d="M41.4,55.4l1.1,4.8c0,0-0.9,0-1.8-0.7c-0.9-0.7-0.1-3.8-0.1-3.8L41.4,55.4z M40.7,56.2v1.5h1.1l-0.6-1.9"/>
		<path class="st3" d="M63,72.6c0,0,1-0.2,1-0.4c0-0.4,16.9,17.8,17.4,18c0.5,0.2,10.9,6.8,11.2,7.1c0.4,0.2-0.7,0.9-0.7,0.9l-2.7-2
			c0,0-8.2-5-8.6-5.1c-0.4-0.1-5.4-5.2-6.9-6.7c-1.5-1.5-9.9-11.5-9.9-11.5 M63.6,72.7l2.6,3.1V75L64,72.1 M73.4,83.2l1.6,2l0.4-0.4
			l-2-2 M79.8,90.1l2.4,1.7l0.5-0.4l-2.5-1.8 M86.8,94.7l2.4,0.9l0.4-0.3l-2.8-1.4"/>
		<path class="st3" d="M71.8,60.4l9.7,7.2c0,0,9,1.6,9.6,1.8c0.6,0.2,16.4,0,16.4,0s0.4,0.8,0.2,0.8s-7.1,0.1-7.1,0.1l-9.3,0.2
			c0,0-6.9-1.3-9.8-2C78.4,67.9,70,61,70,61L71.8,60.4z M90.8,70.3h2.8v-0.8c0,0-2.6-0.1-2.8,0 M99.7,70.1l2.8,0l0.3-0.6
			c0,0-2.9,0.1-3.1,0.1 M81.2,68.5l2.5,0.5l0.6-0.8c0,0-2.6-0.6-2.6-0.6"/>
		<path class="st3" d="M43.9,38.8c0.1-0.6,1-0.5,1.1-0.5c0.1,0,1.2,0.7,0.6,1c-0.6,0.3,0,8.9,0,8.9h-2
			C43.5,48.2,43.9,39.5,43.9,38.8 M44.2,38.3l-0.4,1.6l1.9-0.8l-1-0.8"/>
		<path class="st3" d="M52.2,47.9c0,0,4.9-7.7,5.5-7.7c0.6,0,4.6,7.7,4.6,7.7h-1.2c0,0-3.1-5.8-3.4-6.1c-0.3-0.3-3.5,6.1-3.5,6.1
			 M56.9,41.3h1.3L58,40.7h-0.5"/>
		<path class="st3" d="M37.3,49.4l-1.7-3.3c0,0-1.3-2.5-1.1-3.2c0.2-0.7,1.2,0.2,1.6,0.4c0.4,0.2,2.7,5.4,2.7,5.4 M35.2,43l-0.5,0.5
			l0.7,0.5l0.4-1.1"/>
		<polyline class="st3" points="34.9,68.2 34.5,70.1 33.8,70.8 34.3,68.2 		"/>
		<path class="st3" d="M36.6,63.2c0,0,0.3,2.5,0,2.6c-0.3,0.1-1.3,1.1-1.3,1.3c0,0.2-0.5,0.2-1.1,0.2c-0.6-0.1-2.4-0.5-2.6-2.2
			c-0.1-0.8,0.3-3.4,0.6-3.5 M32,65.6c0,0,0.2,1.2,1.4,1.4c1.2,0.2,1.3-1.4,0.2-1.9C32.6,64.7,32,65.6,32,65.6"/>
		<path class="st3" d="M40.6,48.7c0.1,1.7,1.5,3.8,0.7,4.1c-0.8,0.3-4.1,1.7-4,3c0,0.4,2.5-0.2,2.5,0.4c0,0.5-0.1,1.8-0.1,2.2
			c0,0.4-2.4,1.2-2.4,1.2l-5.6-1.6c0,0,0.1-5.6,2.6-7C36.8,49.6,40.6,48.7,40.6,48.7 M32.3,57.8c0,0,2.2-2.9,2.5-3.6
			c0.2-0.6-0.4-0.9,0-1.2c0.4-0.3,5.8-2.8,5.8-2.8v-0.3c0,0-6.1,2.8-6.1,3c0,0.2,0,1.1,0,1.2c0.1,0.2-2.4,3.4-2.4,3.4 M40,49.2
			c0,0-5.2,1.8-6,2.6c-0.5,0.5-1.9,4.9-1.9,4.9l0.2,0.1c0,0,1.4-3.6,1.8-4.6c0.4-1,6-2.8,6-2.8"/>
		<path class="st3" d="M31.4,57.5c0-0.1-1.3-4.7-0.9-5.4c0.3-0.7-0.2,0,0.3,1.6c0.5,1.5,0.8,3.2,0.8,3.2"/>
		<path class="st3" d="M31.7,54.8c0-0.1-0.8-1.7-0.8-3.3c0-1.6,0,1.3,0.6,2.4"/>
		<path class="st3" d="M32.2,53.7c0,0-0.9-2.3-0.5-3.6c0.4-1.3-0.7,2.3,0.5,3.4"/>
		<path class="st3" d="M48,56.9l-0.6,1.4c0,0,3.5-0.1,4-0.2c1-0.2,3.7,0.2,3.8,0.3c0.1,0.1,2-1.1,2-1.1C55.1,56.4,48,56.9,48,56.9
			 M48.4,57.2l3.5-0.2l-0.5,0.6l-3.3,0.1 M52.7,57.3l0.2-0.3l3.3,0.1l-1.1,0.6"/>
		<path class="st3" d="M32.8,52.1c0-0.1-0.5-1,0.3-2c0.8-1-0.7,0.9-0.2,1.9"/>
		<path class="st3" d="M57,58.2l4.9,0.9c0,0,1.6,0.1,3,0.5c1.3,0.4,5.9,1.2,5.9,1.2s1,0.1,2.9,0.7c1.8,0.6,2.1,0.8,2.1,0.8
			s2.1,0.1,3.4,0.3c3.2,0.6,2,0.3,1.8-0.8c-0.2-1.2-1.9-0.2-4.8-1c-3.8-1-3.6-1.1-18.5-4.1L57,58.2z M57.9,57.9l0.2-0.7l4.2,0.9
			l0,0.5 M64.8,58.6c0.2,0,5,1,5,1L68.8,60l-3.9-1"/>
		<path class="st2" d="M36,93.1l1-2.4l-0.5,0l-0.8,2.7 M39.3,85.8l1.4-2.5L40.2,83l-1.5,2.5"/>
		<polyline class="st3" points="34.2,72.5 32.1,82.1 31.6,82.1 33.6,73.2 		"/>
		<polyline class="st2" points="44.7,70.8 44.2,66.4 43.8,67.1 44,71 		"/>
		<polyline class="st2" points="20,80.2 22.9,78 22.2,78 19.4,79.8 		"/>
		<polyline class="st2" points="28.9,73.5 29.6,69.4 29,69.9 28.2,73.7 		"/>
		<polyline class="st2" points="42.8,77.7 43.5,75.5 43.1,75.2 41.9,77.9 		"/>
	</g>
	<text transform="matrix(0.8712 0.4909 -0.4909 0.8712 30.8731 111.2238)" class="st5 st6">A.aeg.</text>
	<text transform="matrix(0.8787 -0.4774 0.4774 0.8787 61.9911 125.3369)" class="st7 st6">data</text>
</g>
</svg>
